<svg width="28" height="13" viewBox="0 0 28 13" fill="none" xmlns="http://www.w3.org/2000/svg">
<line x1="4" y1="3" x2="4" y2="10" stroke="#54C406" stroke-width="2"/>
<line x1="7" y1="3" x2="7" y2="10" stroke="#54C406" stroke-width="2"/>
<line x1="10" y1="3" x2="10" y2="10" stroke="#54C406" stroke-width="2"/>
<path fill-rule="evenodd" clip-rule="evenodd" d="M21 1.625H3.5C3.03587 1.625 2.59075 1.79621 2.26256 2.10095C1.93437 2.4057 1.75 2.81902 1.75 3.25V9.75C1.75 10.181 1.93437 10.5943 2.26256 10.899C2.59075 11.2038 3.03587 11.375 3.5 11.375H21C21.4641 11.375 21.9092 11.2038 22.2374 10.899C22.5656 10.5943 22.75 10.181 22.75 9.75V3.25C22.75 2.81902 22.5656 2.4057 22.2374 2.10095C21.9092 1.79621 21.4641 1.625 21 1.625ZM3.5 0C2.57174 0 1.6815 0.34241 1.02513 0.951903C0.368749 1.5614 0 2.38805 0 3.25L0 9.75C0 10.612 0.368749 11.4386 1.02513 12.0481C1.6815 12.6576 2.57174 13 3.5 13H21C21.9283 13 22.8185 12.6576 23.4749 12.0481C24.1312 11.4386 24.5 10.612 24.5 9.75V3.25C24.5 2.38805 24.1312 1.5614 23.4749 0.951903C22.8185 0.34241 21.9283 0 21 0H3.5Z" fill="white"/>
<path d="M25.375 8.9375C26.0712 8.9375 26.7389 8.68069 27.2312 8.22357C27.7234 7.76645 28 7.14647 28 6.5C28 5.85353 27.7234 5.23355 27.2312 4.77643C26.7389 4.31931 26.0712 4.0625 25.375 4.0625V8.9375Z" fill="white"/>
</svg>