<svg width="26" height="26" viewBox="0 0 26 26" fill="none" xmlns="http://www.w3.org/2000/svg">
<path d="M17.1491 6.5H4.51741C3.85724 6.53913 3.23939 6.83798 2.79889 7.33126C2.3584 7.82454 2.13106 8.47212 2.16658 9.1325V16.8675C2.13106 17.5279 2.3584 18.1755 2.79889 18.6687C3.23939 19.162 3.85724 19.4609 4.51741 19.5H17.1491C17.8093 19.4609 18.4271 19.162 18.8676 18.6687C19.3081 18.1755 19.5354 17.5279 19.4999 16.8675V9.1325C19.5354 8.47212 19.3081 7.82454 18.8676 7.33126C18.4271 6.83798 17.8093 6.53913 17.1491 6.5Z" fill="#231F20"/>
<path d="M22.7501 9.75C22.4628 9.75 22.1872 9.86414 21.984 10.0673C21.7809 10.2705 21.6667 10.546 21.6667 10.8333V15.1667C21.6667 15.454 21.7809 15.7295 21.984 15.9327C22.1872 16.1359 22.4628 16.25 22.7501 16.25C23.0374 16.25 23.313 16.1359 23.5161 15.9327C23.7193 15.7295 23.8334 15.454 23.8334 15.1667V10.8333C23.8334 10.546 23.7193 10.2705 23.5161 10.0673C23.313 9.86414 23.0374 9.75 22.7501 9.75Z" fill="#231F20"/>
</svg>
