<svg width="17" height="20" viewBox="0 0 17 20" fill="none" xmlns="http://www.w3.org/2000/svg">
<path d="M16.8548 13.5342L14.9878 10.0873V6.4984C14.9878 2.91517 12.0726 0 8.48938 0C4.90615 0 1.99098 2.91517 1.99098 6.4984V10.0873L0.123882 13.5341C0.0392113 13.6904 -0.00340394 13.866 0.000212411 14.0437C0.00382877 14.2215 0.0535526 14.3952 0.144512 14.5479C0.235471 14.7006 0.364544 14.8271 0.519086 14.9149C0.673628 15.0028 0.848336 15.0489 1.02609 15.0489H4.74279C4.73262 15.1616 4.7271 15.2755 4.7271 15.391C4.7271 16.3888 5.12348 17.3457 5.82903 18.0513C6.53459 18.7568 7.49153 19.1532 8.48934 19.1532C9.48714 19.1532 10.4441 18.7568 11.1496 18.0513C11.8552 17.3457 12.2516 16.3888 12.2516 15.391C12.2516 15.2755 12.2461 15.1616 12.2359 15.0489H15.9526C16.1303 15.0489 16.305 15.0027 16.4595 14.9149C16.614 14.827 16.7431 14.7006 16.834 14.5479C16.925 14.3952 16.9747 14.2214 16.9783 14.0437C16.9819 13.866 16.9393 13.6904 16.8547 13.5342H16.8548ZM10.8835 15.391C10.8838 15.72 10.8162 16.0455 10.6851 16.3473C10.5539 16.649 10.362 16.9205 10.1213 17.1447C9.88052 17.369 9.59614 17.5412 9.28586 17.6507C8.97559 17.7601 8.64609 17.8045 8.31792 17.7809C7.98975 17.7573 7.66996 17.6664 7.3785 17.5137C7.08705 17.3611 6.83019 17.15 6.62396 16.8936C6.41772 16.6373 6.26654 16.3412 6.17984 16.0238C6.09315 15.7064 6.0728 15.3745 6.12007 15.0489H10.8586C10.8751 15.1622 10.8834 15.2765 10.8835 15.391ZM1.6003 13.6808L3.35906 10.434V6.4984C3.35906 5.13776 3.89957 3.83284 4.8617 2.87072C5.82382 1.9086 7.12873 1.36808 8.48938 1.36808C9.85002 1.36808 11.1549 1.9086 12.1171 2.87072C13.0792 3.83284 13.6197 5.13776 13.6197 6.4984V10.434L15.3784 13.6808H1.6003Z" fill="black"/>
</svg>
