<svg width="47" height="47" viewBox="0 0 47 47" fill="none" xmlns="http://www.w3.org/2000/svg">
<circle cx="23.5" cy="23.5" r="23.5" fill="#FFD839"/>
<path d="M13.0375 33.0065H26.6255C26.531 34.8281 25.3571 35.9886 23.7379 35.9886C22.1052 35.9886 20.9447 34.8281 20.8368 33.0065H18.7318C18.8398 35.5972 20.8772 37.8776 23.7379 37.8776C26.585 37.8776 28.6225 35.5972 28.7305 33.0065H34.4248C35.7065 33.0065 36.4623 32.3453 36.4623 31.3738C36.4623 30.0244 35.0994 28.81 33.9255 27.6091C33.0349 26.678 32.792 24.7619 32.6976 23.2102C32.5897 17.8937 31.2268 14.4528 27.624 13.1574C27.1787 11.4033 25.7214 10 23.7379 10C21.7408 10 20.297 11.4033 19.8382 13.1574C16.249 14.4528 14.8726 17.8937 14.7782 23.2102C14.6702 24.7619 14.4408 26.678 13.5368 27.6091C12.3763 28.81 11 30.0244 11 31.3738C11 32.3453 11.7691 33.0065 13.0375 33.0065ZM13.6312 30.9689V30.807C13.8741 30.4022 14.6702 29.6196 15.3854 28.8235C16.3434 27.744 16.8022 26.0168 16.9236 23.3721C17.0316 17.4889 18.7858 15.5998 21.1066 14.9791C21.444 14.8981 21.6194 14.7227 21.6329 14.3854C21.6869 12.9686 22.483 11.9835 23.7379 11.9835C24.9793 11.9835 25.7889 12.9686 25.8294 14.3854C25.8429 14.7227 26.0318 14.8981 26.3691 14.9791C28.6765 15.5998 30.4307 17.4889 30.5521 23.3721C30.6601 26.0168 31.1189 27.744 32.0904 28.8235C32.792 29.6196 33.6017 30.4022 33.8446 30.807V30.9689H13.6312Z" fill="black"/>
</svg>
