<svg width="30" height="32" viewBox="0 0 30 32" fill="none" xmlns="http://www.w3.org/2000/svg">
<path fill-rule="evenodd" clip-rule="evenodd" d="M0 0V22.6294H4.52605V14.7091H10.1836C14.6555 14.7091 18.1042 12.4461 18.1042 7.35454C18.1042 2.26294 14.6799 4.52587e-07 11.2444 0H0ZM4.52605 4.52587H10.1836C12.3642 4.52587 13.5781 5.71489 13.5781 7.35454C13.5781 8.99419 12.1484 10.1832 10.1836 10.1832H4.52605V4.52587ZM20.3664 15.8405V17.1844L21.4987 18.1035V19.8007H14.7096V19.235H15.8412C16.926 19.235 16.8718 18.1035 15.8412 18.1035H12.4466C11.3151 18.1035 11.3151 19.1265 12.4466 19.235H13.5781V19.8007L12.3052 22.7001C11.9854 22.6326 11.6495 22.6294 11.3151 22.6294C9.0028 22.6294 6.78907 24.426 6.78907 27.1552C6.78907 29.8845 9.0028 31.6811 11.3151 31.6811C13.6274 31.6811 15.6997 29.7431 15.6997 27.0138C15.6997 26.6726 15.6909 26.3302 15.629 26.0238H17.5384L21.6614 21.4979L22.4888 23.2658C21.2338 24.023 20.3672 25.412 20.3672 27.1552C20.3672 29.8845 22.5809 31.6811 24.8933 31.6811C27.2056 31.6811 29.2779 29.7431 29.2779 27.0138C29.2779 24.2845 27.2056 22.6294 24.8933 22.6294C24.5536 22.6294 24.2318 22.696 23.9032 22.7708L22.6302 19.8007L22.6294 17.6509L20.3664 15.8405ZM14.4975 21.4979H19.462L16.7605 24.3266H14.8511C14.534 23.9043 14.1621 23.5376 13.7196 23.2658L14.4975 21.4979ZM11.3151 24.8923C12.7523 24.8923 13.5781 26.1351 13.5781 27.1552C13.5781 28.1753 12.7523 29.4182 11.3151 29.4182C9.87793 29.4182 9.05209 28.1753 9.05209 27.1552C9.05209 26.1351 9.87793 24.8923 11.3151 24.8923ZM24.8933 24.8923C26.3304 24.8923 27.1563 26.1351 27.1563 27.1552C27.1563 28.1753 26.3304 29.4182 24.8933 29.4182C23.4561 29.4182 22.6302 28.1753 22.6302 27.1552C22.6302 26.1351 23.4561 24.8923 24.8933 24.8923Z" fill="#666666"/>
</svg>
