<svg width="21" height="21" viewBox="0 0 21 21" fill="none" xmlns="http://www.w3.org/2000/svg">
<path d="M1.74988 3.5C1.74988 3.26794 1.84207 3.04538 2.00616 2.88128C2.17025 2.71719 2.39281 2.625 2.62488 2.625H18.3749C18.6069 2.625 18.8295 2.71719 18.9936 2.88128C19.1577 3.04538 19.2499 3.26794 19.2499 3.5V8.3125C18.6697 8.3125 18.1133 8.54297 17.7031 8.9532C17.2928 9.36344 17.0624 9.91984 17.0624 10.5C17.0624 11.0802 17.2928 11.6366 17.7031 12.0468C18.1133 12.457 18.6697 12.6875 19.2499 12.6875V17.5C19.2499 17.7321 19.1577 17.9546 18.9936 18.1187C18.8295 18.2828 18.6069 18.375 18.3749 18.375H2.62488C2.39281 18.375 2.17025 18.2828 2.00616 18.1187C1.84207 17.9546 1.74988 17.7321 1.74988 17.5V3.5ZM7.07425 16.625C7.16444 16.3686 7.33199 16.1466 7.55376 15.9895C7.77554 15.8324 8.04061 15.748 8.31238 15.748C8.58415 15.748 8.84922 15.8324 9.07099 15.9895C9.29277 16.1466 9.46032 16.3686 9.5505 16.625H17.4999V14.028C16.8426 13.7022 16.2893 13.1993 15.9026 12.576C15.5158 11.9526 15.3108 11.2336 15.3108 10.5C15.3108 9.7664 15.5158 9.04738 15.9026 8.42403C16.2893 7.80067 16.8426 7.29776 17.4999 6.972V4.375H9.5505C9.46032 4.63137 9.29277 4.85342 9.07099 5.01051C8.84922 5.16759 8.58415 5.25195 8.31238 5.25195C8.04061 5.25195 7.77554 5.16759 7.55376 5.01051C7.33199 4.85342 7.16444 4.63137 7.07425 4.375H3.49988V16.625H7.07425ZM8.31238 9.625C7.96428 9.625 7.63044 9.48672 7.3843 9.24058C7.13816 8.99444 6.99988 8.6606 6.99988 8.3125C6.99988 7.9644 7.13816 7.63056 7.3843 7.38442C7.63044 7.13828 7.96428 7 8.31238 7C8.66047 7 8.99431 7.13828 9.24046 7.38442C9.4866 7.63056 9.62488 7.9644 9.62488 8.3125C9.62488 8.6606 9.4866 8.99444 9.24046 9.24058C8.99431 9.48672 8.66047 9.625 8.31238 9.625ZM8.31238 14C7.96428 14 7.63044 13.8617 7.3843 13.6156C7.13816 13.3694 6.99988 13.0356 6.99988 12.6875C6.99988 12.3394 7.13816 12.0056 7.3843 11.7594C7.63044 11.5133 7.96428 11.375 8.31238 11.375C8.66047 11.375 8.99431 11.5133 9.24046 11.7594C9.4866 12.0056 9.62488 12.3394 9.62488 12.6875C9.62488 13.0356 9.4866 13.3694 9.24046 13.6156C8.99431 13.8617 8.66047 14 8.31238 14Z" fill="black"/>
</svg>
