<svg width="683" height="683" viewBox="0 0 683 683" fill="none" xmlns="http://www.w3.org/2000/svg">
<g clip-path="url(#clip0_99_110)">
<path d="M391.867 51.7332C387.333 53.9999 383.2 57.5999 380.667 61.1999C377.067 66.3999 376.667 67.8666 376.667 77.7332C376.667 87.8666 376.933 89.0666 380.933 94.9333C383.867 99.0666 387.6 102.133 392.267 104.533C399.2 108 399.333 108 432.667 108H466.133L490.4 216.267L514.667 324.667L470.267 418.667L425.867 512.667L338.533 513.067L251.333 513.333L248.933 500.4C237.067 435.733 177.733 385.2 113.2 384.8C98.2667 384.667 97.6001 384.8 92.9334 388.4C86.6667 393.067 83.7334 398.8 83.7334 405.867C83.7334 413.067 85.6001 417.333 90.5334 422.4C95.6001 427.333 100.267 428.933 114 429.867C155.467 432.8 190.133 460.4 202.533 500.533C204 505.467 205.333 511.067 205.333 512.8C205.333 516 205.333 516 190 516H174.667L170.8 508.133C156.667 478.933 131.2 460.933 99.2001 457.2C71.8667 454.133 46.2667 463.2 25.8667 483.467C-0.133285 509.2 -7.19995 549.867 8.66672 583.733C23.2001 614.533 50.5334 632.667 85.3334 634.4C96.8001 634.933 101.467 634.533 110.4 632.267C137.6 625.333 158.4 608.8 169.733 585.067L174 576L214.667 575.867C237.067 575.733 299.2 575.333 352.667 574.8C449.867 574 450 574 455.6 571.067C458.533 569.467 462.8 566 464.933 563.333C467.067 560.8 483.467 527.733 501.333 489.867C524.8 440.267 534.133 421.733 534.8 423.467C535.2 424.933 537.6 435.6 540.133 447.467L544.533 468.8L531.867 481.333C512.133 501.067 504.8 518.667 504.667 546C504.667 571.6 512.533 590.133 531.333 608.8C550.133 627.467 571.467 635.6 598 634.267C612.533 633.467 621.6 631.2 634.267 625.067C677.333 604 694.933 548.4 673.067 502.667C662.4 480.4 638.533 461.733 614.267 456.667C609.2 455.733 604.8 454.533 604.4 454.133C603.2 453.067 580.4 350.933 547.867 202C516.933 60.3999 516.8 59.4666 508.267 53.5999C500.667 48.2666 497.067 47.9999 447.333 47.9999H398.933L391.867 51.7332ZM106.267 503.333C111.867 505.733 122.667 513.067 122.667 514.667C122.667 515.2 116.533 516 109.067 516.267C96.1334 516.667 94.9334 516.933 89.0667 520.933C72.9334 532.267 71.6001 555.467 86.5334 568.133C93.4667 574.133 99.6001 576 112.8 576H123.333L120 578.667C108.667 587.6 86.5334 590.133 73.3334 583.867C62.8001 578.933 56.6667 573.067 51.7334 563.067C43.6001 546.4 46.8001 526.533 59.8667 513.467C66.0001 507.333 73.8667 502.933 81.7334 501.333C88.5334 500 100.4 500.933 106.267 503.333ZM626.667 514.667C635.467 523.467 639.2 532.267 639.333 544C639.333 552.267 638.667 555.333 635.733 561.333C631.067 570.8 622.8 579.067 613.467 583.6C607.2 586.667 604.267 587.333 595.333 587.333C585.867 587.333 583.6 586.8 575.733 582.933C565.6 578 559.733 571.867 554.933 561.467C550.4 551.467 550.133 537.067 554.533 527.333C556.8 522.133 557.733 521.2 558.667 522.667C559.333 523.733 560 525.6 560 526.8C560 532.4 564.667 543.333 568.8 548C575.2 554.933 582.933 557.867 593.867 557.067C601.067 556.667 603.467 555.867 607.6 552.533C619.467 542.933 621.6 532.667 616.533 509.6C616 506.8 616.133 506.667 618.667 508C620.267 508.8 623.867 511.867 626.667 514.667Z" fill="white"/>
</g>
<defs>
<clipPath id="clip0_99_110">
<rect width="682.667" height="682.667" fill="white"/>
</clipPath>
</defs>
</svg>
