<svg width="25" height="19" viewBox="0 0 25 19" fill="none" xmlns="http://www.w3.org/2000/svg">
<path d="M18.8192 0.128159C19.0031 0.211696 19.1558 0.331573 19.2619 0.47579C19.368 0.620007 19.4238 0.783503 19.4238 0.949913V4.74993C20.107 4.74935 20.7826 4.86188 21.4063 5.08013C22.03 5.29838 22.5877 5.61742 23.0426 6.01629C23.8403 6.71249 24.2809 7.61489 24.2797 8.54995C24.2797 9.52275 23.8111 10.412 23.0426 11.0836C22.5875 11.4823 22.0299 11.8013 21.4062 12.0195C20.7825 12.2378 20.1069 12.3504 19.4238 12.35V16.15C19.4237 16.3163 19.3678 16.4798 19.2617 16.6239C19.1555 16.7681 19.0029 16.8879 18.819 16.9714C18.6351 17.0549 18.4265 17.0991 18.2139 17.0997C18.0013 17.1002 17.7922 17.0571 17.6076 16.9746L9.71188 13.4444V18.05C9.71188 18.302 9.58397 18.5436 9.35631 18.7218C9.12864 18.8999 8.81986 19 8.49789 19H3.64195C3.31998 19 3.0112 18.8999 2.78354 18.7218C2.55587 18.5436 2.42797 18.302 2.42797 18.05V13.3C1.78403 13.3 1.16647 13.0998 0.711136 12.7435C0.255803 12.3872 0 11.9039 0 11.4V5.69994C0 5.19602 0.255803 4.71275 0.711136 4.35643C1.16647 4.00011 1.78403 3.79993 2.42797 3.79993H9.38896L17.6076 0.125309C17.7922 0.0427136 18.0013 -0.000495874 18.2139 4.29334e-06C18.4265 0.00050446 18.6352 0.0446968 18.8192 0.128159ZM9.71188 11.4C9.92311 11.4001 10.1307 11.4433 10.314 11.5254L16.9958 14.5131V2.58677L10.314 5.57454C10.1307 5.65662 9.92311 5.69984 9.71188 5.69994H2.42797V11.4H9.71188ZM4.85594 13.3V17.1H7.28391V13.3H4.85594ZM19.4238 10.45C20.1424 10.45 20.7871 10.2068 21.2338 9.81631C21.6186 9.48 21.8517 9.0373 21.8517 8.54995C21.8517 8.0626 21.6186 7.6199 21.2338 7.28359C21.0064 7.08392 20.7275 6.92421 20.4155 6.81499C20.1036 6.70577 19.7655 6.64952 19.4238 6.64994V10.45Z" fill="#666666"/>
</svg>
