<svg width="34" height="34" viewBox="0 0 34 34" fill="none" xmlns="http://www.w3.org/2000/svg">
<circle cx="17" cy="17" r="17" fill="#E3ECF1"/>
<path d="M20.9278 10.1372C20.9278 7.98752 19.2081 6.24487 17.0867 6.24487C14.9653 6.24487 13.2456 7.98752 13.2456 10.1372V16.9488C13.2456 19.0984 14.9653 20.8411 17.0867 20.8411C19.2081 20.8411 20.9278 19.0984 20.9278 16.9488V10.1372Z" fill="#698ACC"/>
<path d="M22.7087 16.8271V16.9801C22.7087 18.4739 22.1164 19.9065 21.062 20.9628C20.0077 22.0191 18.5777 22.6125 17.0867 22.6125C15.5956 22.6125 14.1657 22.0191 13.1113 20.9628C12.057 19.9065 11.4647 18.4739 11.4647 16.9801V16.8271C11.4647 16.2861 11.027 15.8476 10.487 15.8476H9.9981C9.4581 15.8476 9.02036 16.2861 9.02036 16.827V16.9801C9.02036 19.1234 9.87021 21.1789 11.383 22.6944C12.6046 23.9183 14.1776 24.709 15.8645 24.9681V26.7755C15.8645 27.3165 16.3023 27.755 16.8423 27.755H17.3311C17.8711 27.755 18.3089 27.3165 18.3089 26.7755V24.9681C19.9957 24.709 21.5688 23.9183 22.7904 22.6944C24.3032 21.1789 25.153 19.1234 25.153 16.9801V16.8271C25.153 16.2861 24.7153 15.8476 24.1753 15.8476H23.6864C23.1464 15.8476 22.7087 16.2861 22.7087 16.8271Z" fill="#698ACC"/>
</svg>
