<svg width="23" height="30" viewBox="0 0 23 30" fill="none" xmlns="http://www.w3.org/2000/svg">
<path d="M0.0102177 11.2504C0.0102177 9.21039 0.521102 7.33043 1.54287 5.61046C2.56464 3.89049 3.96446 2.53052 5.74234 1.53054C7.52021 0.530556 9.44114 0.0205657 11.5051 0.000566027C13.5691 -0.0194336 15.49 0.490557 17.2679 1.53054C19.0458 2.57052 20.4456 3.93049 21.4673 5.61046C22.4891 7.29043 23 9.17039 23 11.2504C23 12.1103 22.7854 13.1103 22.3563 14.2503C21.9271 15.3903 21.3856 16.5403 20.7317 17.7002C20.0777 18.8602 19.3319 20.0402 18.494 21.2402C17.6562 22.4401 16.8387 23.5601 16.0418 24.6001C15.2448 25.6401 14.4989 26.5601 13.8041 27.3601C13.1093 28.16 12.5575 28.81 12.1488 29.31L11.5051 30C11.3416 29.84 11.1271 29.6 10.8614 29.28C10.5957 28.96 10.0542 28.33 9.23678 27.3901C8.41937 26.4501 7.66326 25.5101 6.96846 24.5701C6.27366 23.6301 5.46646 22.5301 4.54687 21.2702C3.62728 20.0102 2.87117 18.8102 2.27854 17.6702C1.68592 16.5303 1.14438 15.4003 0.653932 14.2803C0.163483 13.1603 -0.0510884 12.1503 0.0102177 11.2504ZM3.84185 11.2504C3.84185 13.3303 4.58774 15.1003 6.07952 16.5603C7.5713 18.0202 9.37983 18.7502 11.5051 18.7502C13.6304 18.7502 15.4389 18.0202 16.9307 16.5603C18.4225 15.1003 19.1684 13.3303 19.1684 11.2504C19.1684 9.17039 18.4225 7.41043 16.9307 5.97045C15.4389 4.53048 13.6304 3.79049 11.5051 3.7505C9.37983 3.7105 7.5713 4.45048 6.07952 5.97045C4.58774 7.49043 3.84185 9.25039 3.84185 11.2504Z" fill="white"/>
</svg>
