<svg width="46" height="46" viewBox="0 0 46 46" fill="none" xmlns="http://www.w3.org/2000/svg">
<g clip-path="url(#clip0_62_564)">
<path d="M5.75001 17.2499C5.75001 14.1219 6.51668 11.2392 8.05001 8.60189C9.58335 5.96456 11.684 3.87922 14.352 2.34589C17.02 0.812558 19.9027 0.030558 23 -0.000108638C26.0973 -0.0307753 28.98 0.751225 31.648 2.34589C34.316 3.94056 36.4167 6.02589 37.95 8.60189C39.4833 11.1779 40.25 14.0606 40.25 17.2499C40.25 18.5686 39.928 20.1019 39.284 21.8499C38.64 23.5979 37.8273 25.3612 36.846 27.1399C35.8647 28.9186 34.7453 30.7279 33.488 32.5679C32.2307 34.4079 31.004 36.1252 29.808 37.7199C28.612 39.3146 27.4927 40.7252 26.45 41.9519C25.4073 43.1786 24.5793 44.1752 23.966 44.9419L23 45.9999C22.7547 45.7546 22.4327 45.3866 22.034 44.8959C21.6353 44.4052 20.8227 43.4392 19.596 41.9979C18.3693 40.5566 17.2347 39.1152 16.192 37.6739C15.1493 36.2326 13.938 34.5459 12.558 32.6139C11.178 30.6819 10.0433 28.8419 9.15401 27.0939C8.26468 25.3459 7.45201 23.6132 6.71601 21.8959C5.98001 20.1786 5.65801 18.6299 5.75001 17.2499ZM11.5 17.2499C11.5 20.4392 12.6193 23.1532 14.858 25.3919C17.0967 27.6306 19.8107 28.7499 23 28.7499C26.1893 28.7499 28.9033 27.6306 31.142 25.3919C33.3807 23.1532 34.5 20.4392 34.5 17.2499C34.5 14.0606 33.3807 11.3619 31.142 9.15389C28.9033 6.94589 26.1893 5.81122 23 5.74989C19.8107 5.68856 17.0967 6.82322 14.858 9.15389C12.6193 11.4846 11.5 14.1832 11.5 17.2499Z" fill="#214C9F"/>
</g>
<defs>
<clipPath id="clip0_62_564">
<rect width="46" height="46" fill="white"/>
</clipPath>
</defs>
</svg>
