<svg width="16" height="16" viewBox="0 0 16 16" fill="none" xmlns="http://www.w3.org/2000/svg">
<path d="M14.9064 13.8337L12.1036 11.0535C13.1916 9.69691 13.7184 7.97507 13.5759 6.24199C13.4333 4.5089 12.6322 2.8963 11.3372 1.73577C10.0421 0.575233 8.35169 -0.0450191 6.6134 0.00254672C4.87511 0.0501125 3.22111 0.76188 1.9915 1.9915C0.76188 3.22111 0.0501125 4.87511 0.00254672 6.6134C-0.0450191 8.35169 0.575233 10.0421 1.73577 11.3372C2.8963 12.6322 4.5089 13.4333 6.24199 13.5759C7.97507 13.7184 9.69691 13.1916 11.0535 12.1036L13.8337 14.8838C13.9039 14.9546 13.9874 15.0108 14.0795 15.0491C14.1716 15.0875 14.2703 15.1072 14.37 15.1072C14.4698 15.1072 14.5685 15.0875 14.6606 15.0491C14.7527 15.0108 14.8362 14.9546 14.9064 14.8838C15.0426 14.7429 15.1187 14.5546 15.1187 14.3587C15.1187 14.1628 15.0426 13.9745 14.9064 13.8337ZM6.81518 12.1036C5.76923 12.1036 4.74677 11.7934 3.87709 11.2123C3.00742 10.6312 2.32959 9.80529 1.92932 8.83896C1.52905 7.87263 1.42433 6.80931 1.62838 5.78346C1.83243 4.75761 2.33611 3.8153 3.0757 3.0757C3.8153 2.33611 4.75761 1.83243 5.78346 1.62838C6.80931 1.42433 7.87263 1.52905 8.83896 1.92932C9.80529 2.32959 10.6312 3.00742 11.2123 3.87709C11.7934 4.74677 12.1036 5.76923 12.1036 6.81518C12.1036 8.21775 11.5464 9.56288 10.5546 10.5546C9.56288 11.5464 8.21775 12.1036 6.81518 12.1036Z" fill="#999999"/>
</svg>
