<svg width="20" height="15" viewBox="0 0 20 15" fill="none" xmlns="http://www.w3.org/2000/svg">
<path d="M11.9536 3.0835C11.2168 3.0835 10.6254 3.54118 10.6254 4.11127V13.3612C10.6254 13.9313 11.2168 14.389 11.9536 14.389H13.2817C14.0185 14.389 14.6099 13.9313 14.6099 13.3612V4.11127C14.6099 3.54118 14.0185 3.0835 13.2817 3.0835H11.9536ZM6.64087 6.16682C5.90415 6.16682 5.3127 6.62449 5.3127 7.19459V13.3612C5.3127 13.9313 5.90415 14.389 6.64087 14.389H7.96904C8.70577 14.389 9.29722 13.9313 9.29722 13.3612V7.19459C9.29722 6.62449 8.70577 6.16682 7.96904 6.16682H6.64087ZM1.32817 9.25013C0.591452 9.25013 0 9.70781 0 10.2779V13.3612C0 13.9313 0.591452 14.389 1.32817 14.389H2.65635C3.39307 14.389 3.98452 13.9313 3.98452 13.3612V10.2779C3.98452 9.70781 3.39307 9.25013 2.65635 9.25013H1.32817Z" fill="#2E3436"/>
<path d="M17.2663 0C16.5296 0 15.9381 0.45768 15.9381 1.02777V13.361C15.9381 13.9311 16.5296 14.3888 17.2663 14.3888H18.5945C19.3312 14.3888 19.9226 13.9311 19.9226 13.361V1.02777C19.9226 0.45768 19.3312 0 18.5945 0H17.2663Z" fill="#2E3436" fill-opacity="0.34902"/>
</svg>
