<svg width="116" height="87" viewBox="0 0 116 87" fill="none" xmlns="http://www.w3.org/2000/svg">
<path d="M61.355 32.355H66.7475V64.71H61.355V32.355Z" fill="white"/>
<path d="M77.5325 32.355H82.925V64.71H77.5325V32.355Z" fill="white"/>
<path d="M39.785 16.1775V21.57H45.1775V75.495C45.1775 76.9252 45.7456 78.2968 46.7569 79.3081C47.7682 80.3194 49.1398 80.8875 50.57 80.8875H93.71C95.1402 80.8875 96.5118 80.3194 97.523 79.3081C98.5343 78.2968 99.1025 76.9252 99.1025 75.495V21.57H104.495V16.1775H39.785ZM50.57 75.495V21.57H93.71V75.495H50.57Z" fill="white"/>
<path d="M61.355 5.3925H82.925V10.785H61.355V5.3925Z" fill="white"/>
<path d="M14.355 57.355H16.7475V71.71H14.355V57.355Z" fill="white"/>
<path d="M21.5325 57.355H23.925V71.71H21.5325V57.355Z" fill="white"/>
<path d="M4.78497 50.1775V52.57H7.17747V76.495C7.17747 77.1295 7.42954 77.7381 7.87822 78.1867C8.3269 78.6354 8.93544 78.8875 9.56997 78.8875H28.71C29.3445 78.8875 29.953 78.6354 30.4017 78.1867C30.8504 77.7381 31.1025 77.1295 31.1025 76.495V52.57H33.495V50.1775H4.78497ZM9.56997 76.495V52.57H28.71V76.495H9.56997Z" fill="white"/>
<path d="M14.355 45.3925H23.925V47.785H14.355V45.3925Z" fill="white"/>
</svg>
