<svg width="31" height="60" viewBox="0 0 31 60" fill="none" xmlns="http://www.w3.org/2000/svg">
<path d="M2.97852 48V12.6484H10.2051V25.9297H10.4004C11.4258 23.7812 13.5254 21.1445 17.9688 21.1445C23.8281 21.1445 28.7598 25.6855 28.7598 34.7676C28.7598 43.6055 24.0234 48.4395 17.9688 48.4395C13.623 48.4395 11.4258 45.9492 10.4004 43.752H10.1074V48H2.97852ZM10.0586 34.7188C10.0586 39.5039 12.1094 42.6777 15.6738 42.6777C19.3848 42.6777 21.3379 39.4062 21.3379 34.7188C21.3379 30.0801 19.3848 26.9062 15.6738 26.9062C12.0605 26.9062 10.0586 29.9336 10.0586 34.7188Z" fill="#152772"/>
<circle cx="6.5" cy="7.5" r="3.5" fill="#152772"/>
<path d="M6.5 16L3.46891 13.75H9.53109L6.5 16Z" fill="white"/>
</svg>
