<svg width="21" height="16" viewBox="0 0 21 16" fill="none" xmlns="http://www.w3.org/2000/svg">
<path d="M1.33467 6.60472C1.50984 6.79118 1.76791 6.78138 1.93379 6.59493C4.10911 4.13162 6.98494 2.83622 10.2018 2.83622C13.4371 2.83622 16.3222 4.14142 18.4882 6.60472C18.6449 6.77154 18.8939 6.77154 19.0598 6.58509L20.2857 5.27984C20.4331 5.11302 20.4331 4.89713 20.3133 4.74007C18.2302 2.01184 14.3128 0 10.2018 0C6.09087 0 2.17345 2.01184 0.090311 4.74007C-0.0387226 4.89713 -0.0294806 5.11302 0.117998 5.27984L1.33467 6.60472ZM5.02163 10.54C5.206 10.7461 5.44566 10.7265 5.62078 10.5106C6.68998 9.2446 8.42283 8.33196 10.2018 8.35159C11.9992 8.33196 13.7228 9.27408 14.8013 10.54C14.9764 10.7363 15.2068 10.7363 15.382 10.5302L16.7554 9.08762C16.9028 8.93056 16.9213 8.72451 16.783 8.55765C15.4465 6.80098 12.967 5.50558 10.2018 5.50558C7.43658 5.50558 4.95713 6.81082 3.62059 8.55765C3.48235 8.72451 3.50076 8.92076 3.64823 9.08762L5.02163 10.54ZM10.2018 15.6923C10.3954 15.6923 10.5705 15.5844 10.9116 15.231L13.0684 13.0229C13.2067 12.8856 13.2343 12.6697 13.1145 12.5028C12.5338 11.7079 11.4462 11.0209 10.2018 11.0209C8.9298 11.0209 7.82372 11.7373 7.25225 12.5617C7.16927 12.6991 7.19695 12.8856 7.33519 13.0229L9.49207 15.231C9.83312 15.5844 10.0082 15.6923 10.2018 15.6923Z" fill="black"/>
</svg>
